<mxfile host="app.diagrams.net" modified="2021-06-24T06:07:31.282Z" agent="5.0 (Windows NT 10.0; Win64; x64) AppleWebKit/537.36 (KHTML, like Gecko) Chrome/91.0.4472.114 Safari/537.36" etag="039Gbh_CfwTv7ClRT628" version="14.8.0" type="github">
  <diagram id="wHCcXIbXNz2qJ8hv7g5A" name="Page-1">
    <mxGraphModel dx="1102" dy="1783" grid="1" gridSize="10" guides="1" tooltips="1" connect="1" arrows="1" fold="1" page="1" pageScale="1" pageWidth="827" pageHeight="1169" math="0" shadow="0">
      <root>
        <mxCell id="0" />
        <mxCell id="1" parent="0" />
        <mxCell id="GeSuh1DuPKqAkpVKCu9--3" style="edgeStyle=orthogonalEdgeStyle;rounded=0;orthogonalLoop=1;jettySize=auto;html=1;" edge="1" parent="1" source="GeSuh1DuPKqAkpVKCu9--1" target="GeSuh1DuPKqAkpVKCu9--2">
          <mxGeometry relative="1" as="geometry" />
        </mxCell>
        <mxCell id="GeSuh1DuPKqAkpVKCu9--1" value="会员注册" style="ellipse;whiteSpace=wrap;html=1;" vertex="1" parent="1">
          <mxGeometry x="90" y="-560" width="120" height="80" as="geometry" />
        </mxCell>
        <mxCell id="GeSuh1DuPKqAkpVKCu9--2" value="普通会员" style="rounded=0;whiteSpace=wrap;html=1;" vertex="1" parent="1">
          <mxGeometry x="90" y="-360" width="120" height="60" as="geometry" />
        </mxCell>
      </root>
    </mxGraphModel>
  </diagram>
</mxfile>
